<svg xmlns="http://www.w3.org/2000/svg" viewBox="0 0 512 512"><path d="M256 145.37c-61.002 0-110.63 49.629-110.63 110.63S194.998 366.63 256 366.63 366.63 317.002 366.63 256 317.002 145.37 256 145.37zm0 205.227c-52.161 0-94.597-42.436-94.597-94.597s42.436-94.597 94.597-94.597 94.597 42.436 94.597 94.597-42.436 94.597-94.597 94.597zM59.324 247.983H8.017a8.017 8.017 0 000 16.034h51.307a8.017 8.017 0 000-16.034zM158.876 353.123a8.016 8.016 0 00-11.337 0l-60.465 60.465a8.016 8.016 0 000 11.337c1.565 1.566 3.617 2.348 5.668 2.348s4.103-.782 5.668-2.348l60.465-60.465a8.015 8.015 0 00.001-11.337zM424.926 87.074a8.014 8.014 0 00-11.337 0l-60.465 60.465a8.016 8.016 0 000 11.337c1.565 1.566 3.617 2.348 5.668 2.348s4.104-.782 5.668-2.348l60.465-60.465a8.015 8.015 0 00.001-11.337zM418.472 247.983H401.37a8.017 8.017 0 000 16.034h17.102a8.017 8.017 0 000-16.034zM110.63 247.983H93.528a8.017 8.017 0 000 16.034h17.102a8.017 8.017 0 000-16.034zM503.983 247.983h-51.307a8.017 8.017 0 000 16.034h51.307a8.017 8.017 0 000-16.034zM256 85.511a8.017 8.017 0 00-8.017 8.017v17.102a8.017 8.017 0 0016.034 0V93.528A8.018 8.018 0 00256 85.511zM256 0a8.017 8.017 0 00-8.017 8.017v51.307a8.017 8.017 0 0016.034 0V8.017A8.017 8.017 0 00256 0zM256 393.353a8.017 8.017 0 00-8.017 8.017v17.102a8.017 8.017 0 0016.034 0V401.37a8.017 8.017 0 00-8.017-8.017zM256 444.66a8.017 8.017 0 00-8.017 8.017v51.307a8.017 8.017 0 0016.034 0v-51.307A8.017 8.017 0 00256 444.66zM158.876 147.54L98.411 87.074a8.014 8.014 0 00-11.337 0 8.016 8.016 0 000 11.337l60.465 60.466c1.565 1.566 3.617 2.348 5.668 2.348s4.104-.782 5.668-2.348a8.015 8.015 0 00.001-11.337zM424.926 413.588l-60.465-60.465a8.016 8.016 0 00-11.337 0 8.016 8.016 0 000 11.337l60.465 60.465a7.988 7.988 0 005.668 2.348 7.988 7.988 0 005.668-2.348 8.015 8.015 0 00.001-11.337zM129.102 308.563a8.018 8.018 0 00-10.474-4.339l-15.8 6.545a8.016 8.016 0 00-4.339 10.474 8.018 8.018 0 0010.475 4.339l15.8-6.545a8.016 8.016 0 004.338-10.474zM81.701 328.196a8.017 8.017 0 00-10.474-4.339l-15.8 6.545a8.017 8.017 0 106.136 14.813l15.8-6.545a8.016 8.016 0 004.338-10.474zM460.912 171.123a8.018 8.018 0 00-10.474-4.339l-15.8 6.545a8.016 8.016 0 106.136 14.813l15.8-6.545a8.016 8.016 0 004.338-10.474zM413.511 190.757a8.017 8.017 0 00-10.474-4.339l-15.8 6.545a8.016 8.016 0 00-4.339 10.474 8.018 8.018 0 0010.475 4.339l15.8-6.545a8.016 8.016 0 004.338-10.474zM207.776 118.628l-6.545-15.8a8.017 8.017 0 00-14.813 6.135l6.545 15.8a8.02 8.02 0 007.41 4.951 8.017 8.017 0 007.403-11.086zM188.141 71.227l-6.545-15.8a8.017 8.017 0 00-14.813 6.135l6.545 15.8a8.019 8.019 0 0010.475 4.339 8.016 8.016 0 004.338-10.474zM345.216 450.438l-6.545-15.8a8.016 8.016 0 00-10.474-4.339 8.016 8.016 0 00-4.339 10.474l6.545 15.8a8.02 8.02 0 007.41 4.951 8.017 8.017 0 007.403-11.086zM325.582 403.037l-6.545-15.8a8.017 8.017 0 00-14.813 6.135l6.545 15.8a8.019 8.019 0 0010.475 4.339 8.017 8.017 0 004.338-10.474zM124.764 192.963l-15.8-6.545a8.016 8.016 0 00-10.474 4.339 8.016 8.016 0 004.339 10.474l15.8 6.545a7.985 7.985 0 003.065.612 8.018 8.018 0 003.07-15.425zM77.362 173.329l-15.8-6.545a8.016 8.016 0 00-10.474 4.339 8.016 8.016 0 004.339 10.474l15.8 6.545a8.02 8.02 0 0010.475-4.34 8.016 8.016 0 00-4.34-10.473zM456.574 330.402l-15.8-6.545a8.016 8.016 0 00-10.474 4.34 8.016 8.016 0 004.339 10.474l15.8 6.545a7.989 7.989 0 003.065.612 8.02 8.02 0 007.41-4.951 8.02 8.02 0 00-4.34-10.475zM409.171 310.769l-15.8-6.545a8.017 8.017 0 00-6.135 14.813l15.8 6.545a7.985 7.985 0 003.065.612 8.017 8.017 0 003.07-15.425zM321.243 98.489a8.015 8.015 0 00-10.474 4.339l-6.545 15.8a8.016 8.016 0 007.404 11.086 8.02 8.02 0 007.41-4.951l6.545-15.8a8.017 8.017 0 00-4.34-10.474zM340.877 51.088a8.016 8.016 0 00-10.474 4.339l-6.545 15.8a8.017 8.017 0 0014.814 6.135l6.545-15.8a8.019 8.019 0 00-4.34-10.474zM183.804 430.299a8.016 8.016 0 00-10.474 4.339l-6.545 15.8a8.016 8.016 0 007.404 11.086 8.02 8.02 0 007.41-4.951l6.545-15.8a8.02 8.02 0 00-4.34-10.474zM203.437 382.898a8.015 8.015 0 00-10.474 4.339l-6.545 15.8a8.016 8.016 0 007.404 11.086 8.02 8.02 0 007.41-4.951l6.545-15.8a8.017 8.017 0 00-4.34-10.474z"/></svg>